<?xml version="1.0" standalone="no"?>
<!DOCTYPE svg PUBLIC "-//W3C//DTD SVG 20010904//EN"
 "http://www.w3.org/TR/2001/REC-SVG-20010904/DTD/svg10.dtd">
<svg version="1.0" xmlns="http://www.w3.org/2000/svg"
 width="256.000000pt" height="256.000000pt" viewBox="0 0 256.000000 256.000000"
 preserveAspectRatio="xMidYMid meet">

<g transform="translate(0.000000,256.000000) scale(0.100000,-0.100000)"
fill="#000000" stroke="none">
<path d="M1210 2180 c-91 -13 -147 -37 -200 -85 -25 -22 -75 -55 -111 -73
-133 -64 -255 -176 -330 -302 -41 -70 -109 -222 -109 -245 0 -17 116 -39 167
-31 125 21 187 25 207 14 11 -6 57 -13 101 -15 129 -5 259 -12 275 -16 8 -1
47 -15 85 -29 115 -43 375 -113 375 -101 0 2 10 -3 22 -11 33 -23 36 -21 30
33 -2 26 0 51 6 54 10 7 61 -71 112 -173 18 -35 44 -82 57 -104 l25 -39 23 27
c27 31 82 56 126 56 l32 0 -8 63 c-4 34 -12 150 -19 257 -7 107 -17 204 -23
215 -6 11 -14 43 -18 70 -15 108 -48 151 -174 225 -37 21 -84 59 -105 84 -44
54 -112 88 -216 109 -99 20 -249 28 -330 17z"/>
</g>
</svg>
